<svg width="52" height="63" viewBox="0 0 52 63" fill="none" xmlns="http://www.w3.org/2000/svg">
<path d="M4.85465 45.9723L4.15143 41.542L13.8181 31.8754C14.2105 33.2899 14.6715 34.5401 15.2009 35.6261L4.85465 45.9723Z" fill="#F1F1F1"/>
<path d="M17.5676 50.2299C18.7855 50.3049 19.8297 50.4439 20.7 50.647C21.1041 50.7413 21.5181 50.8553 21.9419 50.9891L46.781 26.15C46.7817 26.0362 46.782 25.9219 46.782 25.807C46.782 24.1862 46.7136 22.6575 46.5767 21.2208L17.5676 50.2299Z" fill="#F1F1F1"/>
<path d="M33.603 56.374L33.5523 56.3493L42.3242 47.5773L45.8762 49.1588L36.9832 58.0519C35.881 57.5089 34.7542 56.9496 33.603 56.374Z" fill="#F1F1F1"/>
<path d="M42.2315 8.59537C41.4929 7.58486 40.6743 6.69222 39.776 5.91744L30.6932 15.0002C30.8402 15.1463 30.9821 15.2985 31.119 15.457C31.743 16.1796 32.2557 17.0839 32.657 18.17L42.2315 8.59537Z" fill="#F1F1F1"/>
<path d="M23.391 0.69101C24.8684 0.69101 26.3227 0.78369 27.7538 0.969051L0.0759503 28.6469C0.0253168 27.743 0 26.7964 0 25.807C0 25.0317 0.0148469 24.2777 0.0445408 23.5448L22.8948 0.694503C23.06 0.692174 23.2254 0.69101 23.391 0.69101Z" fill="#F1F1F1"/>
<path d="M22.8949 0.694504L0.0445557 23.5448C0.210427 19.451 0.83958 16.0191 1.93201 13.249C3.26602 9.98301 5.03702 7.43001 7.24502 5.59001C9.49902 3.75001 12.006 2.48501 14.766 1.79501C17.4142 1.10041 20.1238 0.733576 22.8949 0.694504Z" fill="#E65252"/>
<path d="M27.7538 0.969055C29.1744 1.15305 30.5721 1.42837 31.947 1.79501C34.753 2.53101 37.26 3.81901 39.468 5.65901C39.5717 5.74365 39.6743 5.82979 39.776 5.91744L30.6932 15.0002C28.9626 13.2807 26.5285 12.421 23.391 12.421C20.033 12.421 17.48 13.456 15.732 15.526C13.984 17.596 13.11 21.023 13.11 25.807C13.11 27.969 13.34 29.97 13.8 31.81C13.806 31.8318 13.812 31.8536 13.8181 31.8754L4.15143 41.542L4.14001 41.47C2.85201 39.86 1.84001 37.79 1.10401 35.26C0.561053 33.3936 0.218369 31.1892 0.0759583 28.6469L27.7538 0.969055Z" fill="#F5D04C"/>
<path d="M4.85464 45.9723L5.52 50.164H15.249C16.0815 50.164 16.8543 50.186 17.5676 50.2299L46.5767 21.2208C46.2863 18.1721 45.6877 15.5379 44.781 13.318C44.0759 11.5301 43.2261 9.95591 42.2315 8.59537L32.6569 18.17C33.3797 20.1261 33.741 22.6717 33.741 25.807C33.741 30.177 32.913 33.512 31.257 35.812C29.647 38.066 27.002 39.193 23.322 39.193H17.871C17.135 38.687 16.399 37.79 15.663 36.502C15.5036 36.223 15.3495 35.931 15.2009 35.6261L4.85464 45.9723Z" fill="#79F05B"/>
<path d="M33.5523 56.3493C31.6861 55.4392 29.978 54.6194 28.428 53.89C26.91 53.154 25.829 52.625 25.185 52.303C24.0465 51.75 22.9654 51.312 21.9419 50.9891L46.781 26.15C46.7576 29.9535 46.344 33.1282 45.54 35.674C44.712 38.296 43.562 40.412 42.09 42.022C41.354 42.896 40.526 43.632 39.606 44.23C38.686 44.828 37.697 45.334 36.639 45.748L36.708 46.093L42.09 47.473L42.3242 47.5773L33.5523 56.3493Z" fill="#3FA4DC"/>
<path d="M45.8762 49.1588L51.543 51.682L45.333 62.17L43.608 61.273C42.458 60.721 40.986 60.008 39.192 59.134C38.467 58.7808 37.7307 58.4201 36.9832 58.0519L45.8762 49.1588Z" fill="#BF7EE7"/>
</svg>
