<svg width="269" height="63" viewBox="0 0 269 63" fill="none" xmlns="http://www.w3.org/2000/svg">
<path d="M107.25 7C107.25 10.866 104.116 14 100.25 14C96.384 14 93.25 10.866 93.25 7C93.25 3.13401 96.384 0 100.25 0C104.116 0 107.25 3.13401 107.25 7Z" fill="#121212"/>
<path d="M62.5717 50.854C59.8117 50.854 57.6727 50.325 56.1547 49.267C54.6827 48.209 53.6477 46.691 53.0497 44.713C52.4977 42.689 52.2217 40.274 52.2217 37.468V17.527H64.6417V35.674C64.6417 37.376 64.9637 38.71 65.6077 39.676C66.2977 40.642 67.3097 41.125 68.6437 41.125C69.8857 41.125 71.0127 40.596 72.0247 39.538C73.0827 38.48 73.6117 36.939 73.6117 34.915V17.527H86.0317V50.164H74.3707V46.783L73.6807 46.438C73.0827 47.036 72.2087 47.68 71.0587 48.37C69.9547 49.06 68.6667 49.658 67.1947 50.164C65.7687 50.624 64.2277 50.854 62.5717 50.854Z" fill="#121212"/>
<path d="M94.0987 50.164V27.325L94.0297 21.805V17.596H106.519V50.164H94.0987Z" fill="#121212"/>
<path d="M114.246 17.596H125.286V20.563L125.907 20.977C126.413 20.517 127.103 19.988 127.977 19.39C128.897 18.746 130.001 18.171 131.289 17.665C132.577 17.159 134.026 16.906 135.636 16.906C140.42 16.906 143.847 18.493 145.917 21.667C146.745 20.517 147.987 19.436 149.643 18.424C151.345 17.366 153.691 16.837 156.681 16.837C160.821 16.837 163.926 18.01 165.996 20.356C168.066 22.702 169.101 25.991 169.101 30.223V50.164H156.681V32.017C156.681 30.269 156.29 28.935 155.508 28.015C154.772 27.049 153.599 26.566 151.989 26.566C150.931 26.566 150.011 26.957 149.229 27.739C148.447 28.521 148.056 29.51 148.056 30.706V50.164H135.636V32.086C135.636 30.338 135.245 29.004 134.463 28.084C133.727 27.118 132.554 26.635 130.944 26.635L126.666 27.946V50.164H114.246V17.596Z" fill="#121212"/>
<path d="M198.979 50.854C196.771 50.854 195 50.647 193.666 50.233C192.378 49.865 191.435 49.497 190.837 49.129C190.239 48.715 189.94 48.508 189.94 48.508V50.233H177.52V1.38101H189.94V20.632C190.86 19.758 191.987 18.93 193.321 18.148C194.701 17.32 196.587 16.906 198.979 16.906C203.073 16.906 206.27 18.217 208.57 20.839C210.916 23.461 212.089 27.601 212.089 33.259C212.089 37.491 211.491 40.918 210.295 43.54C209.145 46.116 207.581 47.979 205.603 49.129C203.625 50.279 201.417 50.854 198.979 50.854ZM193.114 41.401C194.908 41.401 196.334 40.78 197.392 39.538C198.45 38.25 198.979 36.341 198.979 33.811C198.979 31.327 198.542 29.533 197.668 28.429C196.794 27.279 195.506 26.704 193.804 26.704L189.94 28.153V40.504C189.94 40.504 190.17 40.665 190.63 40.987C191.136 41.263 191.964 41.401 193.114 41.401Z" fill="#121212"/>
<path d="M218.017 50.164L217.948 12.352V5.65901L218.017 1.31201H230.437V50.164H218.017Z" fill="#121212"/>
<path d="M254.572 50.854C251.03 50.854 247.879 50.325 245.119 49.267C242.359 48.209 240.197 46.438 238.633 43.954C237.069 41.47 236.287 38.112 236.287 33.88C236.287 30.844 236.793 28.245 237.805 26.083C238.863 23.921 240.266 22.173 242.014 20.839C243.762 19.459 245.717 18.47 247.879 17.872C250.041 17.228 252.272 16.906 254.572 16.906C258.528 16.906 261.564 17.297 263.68 18.079C265.842 18.861 267.958 19.827 268.648 20.287V34.915L248.638 35.191C248.96 36.893 249.811 38.319 251.191 39.469C252.571 40.619 254.848 41.194 258.022 41.194C260.506 41.194 262.645 40.918 264.439 40.366C266.233 39.814 267.636 39.331 268.648 38.917V48.163C267.268 48.899 265.267 49.543 262.645 50.095C260.069 50.601 257.378 50.854 254.572 50.854ZM248.707 30.775L258.229 29.395L257.608 26.428C257.286 26.244 256.803 26.106 256.159 26.014C255.561 25.922 255.032 25.876 254.572 25.876C253.284 25.876 252.203 26.152 251.329 26.704C250.501 27.256 249.857 27.923 249.397 28.705C248.983 29.441 248.753 30.131 248.707 30.775Z" fill="#121212"/>
<path d="M4.85465 45.9723L4.15143 41.542L13.8181 31.8754C14.2105 33.2899 14.6715 34.5401 15.2009 35.6261L4.85465 45.9723Z" fill="#121212"/>
<path d="M17.5676 50.2299C18.7855 50.3049 19.8297 50.4439 20.7 50.647C21.1041 50.7413 21.5181 50.8553 21.9419 50.9891L46.781 26.15C46.7817 26.0362 46.782 25.9219 46.782 25.807C46.782 24.1862 46.7136 22.6575 46.5767 21.2208L17.5676 50.2299Z" fill="#121212"/>
<path d="M33.603 56.374L33.5523 56.3493L42.3242 47.5773L45.8762 49.1588L36.9832 58.0519C35.881 57.5089 34.7542 56.9496 33.603 56.374Z" fill="#121212"/>
<path d="M42.2315 8.59537C41.4929 7.58486 40.6743 6.69222 39.776 5.91744L30.6932 15.0002C30.8402 15.1463 30.9821 15.2985 31.119 15.457C31.743 16.1796 32.2557 17.0839 32.657 18.17L42.2315 8.59537Z" fill="#121212"/>
<path d="M23.391 0.69101C24.8684 0.69101 26.3227 0.78369 27.7538 0.969051L0.0759503 28.6469C0.0253168 27.743 0 26.7964 0 25.807C0 25.0317 0.0148469 24.2777 0.0445408 23.5448L22.8948 0.694503C23.06 0.692174 23.2254 0.69101 23.391 0.69101Z" fill="#121212"/>
<path d="M22.8949 0.694504L0.0445557 23.5448C0.210427 19.451 0.83958 16.0191 1.93201 13.249C3.26602 9.98301 5.03702 7.43001 7.24502 5.59001C9.49902 3.75001 12.006 2.48501 14.766 1.79501C17.4142 1.10041 20.1238 0.733576 22.8949 0.694504Z" fill="#F45959"/>
<path d="M27.7538 0.969055C29.1744 1.15305 30.5721 1.42837 31.947 1.79501C34.753 2.53101 37.26 3.81901 39.468 5.65901C39.5717 5.74365 39.6743 5.82979 39.776 5.91744L30.6932 15.0002C28.9626 13.2807 26.5285 12.421 23.391 12.421C20.033 12.421 17.48 13.456 15.732 15.526C13.984 17.596 13.11 21.023 13.11 25.807C13.11 27.969 13.34 29.97 13.8 31.81C13.806 31.8318 13.812 31.8536 13.8181 31.8754L4.15143 41.542L4.14001 41.47C2.85201 39.86 1.84001 37.79 1.10401 35.26C0.561053 33.3936 0.218369 31.1892 0.0759583 28.6469L27.7538 0.969055Z" fill="#FAD44D"/>
<path d="M4.85464 45.9723L5.52 50.164H15.249C16.0815 50.164 16.8543 50.186 17.5676 50.2299L46.5767 21.2208C46.2863 18.1721 45.6877 15.5379 44.781 13.318C44.0759 11.5301 43.2261 9.95591 42.2315 8.59537L32.6569 18.17C33.3797 20.1261 33.741 22.6717 33.741 25.807C33.741 30.177 32.913 33.512 31.257 35.812C29.647 38.066 27.002 39.193 23.322 39.193H17.871C17.135 38.687 16.399 37.79 15.663 36.502C15.5036 36.223 15.3495 35.931 15.2009 35.6261L4.85464 45.9723Z" fill="#88FF6A"/>
<path d="M33.5523 56.3493C31.6861 55.4392 29.978 54.6194 28.428 53.89C26.91 53.154 25.829 52.625 25.185 52.303C24.0465 51.75 22.9654 51.312 21.9419 50.9891L46.781 26.15C46.7576 29.9535 46.344 33.1282 45.54 35.674C44.712 38.296 43.562 40.412 42.09 42.022C41.354 42.896 40.526 43.632 39.606 44.23C38.686 44.828 37.697 45.334 36.639 45.748L36.708 46.093L42.09 47.473L42.3242 47.5773L33.5523 56.3493Z" fill="#54C1FF"/>
<path d="M45.8762 49.1588L51.543 51.682L45.333 62.17L43.608 61.273C42.458 60.721 40.986 60.008 39.192 59.134C38.467 58.7808 37.7307 58.4201 36.9832 58.0519L45.8762 49.1588Z" fill="#C982F4"/>
</svg>
